# xmcd
#
# Track frame offsets: 
#        150
#        12705
#        26457
#        38885
#        51190
#        62962
#        76560
#        88162
#        99680
#        109960
#        119050
#        131167
#        140802
#        150867
#        163470
#
# Disc length: 2330 seconds
#
# Revision: 2
# Processed by: cddbd v1.5.2PL0 Copyright (c) Steve Scherf et al.
# Submitted via: ExactAudioCopy v0.99pb5
#
DISCID=d609180f
DTITLE=Various Artist - Classic Country Vol. 10 The Nashville Era 1958-1963 D
DTITLE=isc 2
DYEAR=1999
DGENRE=Country
TTITLE0=Hank Thompson - Oklahoma Hills
TTITLE1=Johnny Cash - Don't Take Your Guns To Town
TTITLE2=Brenda Lee - All Alone Am I
TTITLE3=Roy Drusky - Another
TTITLE4=Browns - Scarlet Ribbons (For Her Hair)
TTITLE5=Elvis Presley - Can't Help Falling In Love
TTITLE6=Hank Snow - I've Been Everywhere
TTITLE7=Charlie Ryan - Hot Rod Lincoln
TTITLE8=Billy Walker - Charlie's Shoes
TTITLE9=Buck Owens - Love's Gonna Live Here
TTITLE10=George Jones And Melba Montgomery - We Must Have Been Out Of 
TTITLE10=Our Minds
TTITLE11=Marty Robbins - Just Married
TTITLE12=Jimmie Rodgers - Oh-Oh I'm Falling In Love Again
TTITLE13=Walter Brennan - Old Rivers
TTITLE14=Jim Reeves - Adios Amigo
EXTD=
EXTT0=
EXTT1=
EXTT2=
EXTT3=
EXTT4=
EXTT5=
EXTT6=
EXTT7=
EXTT8=
EXTT9=
EXTT10=
EXTT11=
EXTT12=
EXTT13=
EXTT14=
PLAYORDER=
